<svg xmlns="http://www.w3.org/2000/svg" viewBox="0 0 128 128"><path fill="#512bd4" d="M64 0C28.7 0 0 28.7 0 64s28.7 64 64 64 64-28.7 64-64S99.3 0 64 0zm-8.7 96.9c-.9.5-2 .7-3.1.7-1.7 0-3.1-.6-4.2-1.7s-1.7-2.5-1.7-4.2c0-1.7.6-3.1 1.7-4.3 1.1-1.1 2.5-1.7 4.2-1.7 1.1 0 2.2.2 3.1.7s1.7 1.2 2.2 2.1.8 1.9.8 3.1c0 1.2-.3 2.2-.8 3.1s-1.3 1.6-2.2 2.2zm16.3.4H62l17.8-25.7c1.5-2.1 2.5-3.7 3.1-4.9.3-.5.5-1.1.7-1.6H66.4V57h12.4L60.9 83c-1.3 1.9-2.3 3.5-3 4.8-.3.5-.6 1.1-.8 1.7h18.5v7.8zm24.7 0H87V57.1h9.3v40.2z"/></svg>
