<svg xmlns="http://www.w3.org/2000/svg" viewBox="0 0 128 128"><path fill="#00acd7" d="M17.2 66.5c-.2 0-.3-.1-.2-.3l1-1.3c.1-.2.4-.3.6-.3h17.4c.2 0 .3.2.2.4l-.8 1.2c-.1.2-.4.3-.6.3zm-7.7 4.5c-.2 0-.3-.1-.2-.3l1-1.3c.1-.2.4-.3.6-.3h22.3c.2 0 .3.2.3.4l-.4 1.1c0 .2-.3.4-.5.4zm12.6 4.5c-.2 0-.3-.2-.2-.4l.7-1.2c.1-.2.4-.4.6-.4h9.8c.2 0 .3.2.3.4l-.1 1.2c0 .2-.2.4-.4.4zM73.5 64.5c-3.5.9-5.9 1.5-9.3 2.4-.8.2-.9.3-1.5-.6-.8-1-1.4-1.7-2.5-2.3-3.5-1.8-6.9-1.3-10 .6-3.7 2.3-5.6 5.7-5.5 9.8.1 4 2.8 7.3 6.7 7.8 3.4.5 6.3-.7 8.6-3.3.5-.5.9-1.1 1.4-1.7H52c-1.1 0-1.4-.7-1-1.6.7-1.7 1.9-4.5 2.6-5.9.2-.3.6-.8 1.2-.8H78c-.1 1.3-.1 2.5-.3 3.8-.5 3.3-1.8 6.3-3.7 9-3.2 4.6-7.4 7.6-12.8 8.8-4.4 1-8.5.6-12.3-1.8-3.5-2.2-5.7-5.4-6.4-9.5-.9-4.8.2-9.3 2.8-13.3 2.8-4.3 6.7-7.1 11.6-8.4 4.1-1.1 8-.9 11.6 1.1 2.4 1.3 4 3.3 5.2 5.7.1.3.1.4-.2.5z"/><path fill="#00acd7" d="M93.2 90.5c-3.8-.1-7.2-1-10.2-3.3-2.5-2-4-4.6-4.6-7.8-.8-4.5.3-8.6 2.8-12.3 2.8-4.1 6.7-6.5 11.5-7.5 4.1-.8 8-.5 11.5 1.7 3 1.9 4.9 4.6 5.4 8.1.7 5.1-.6 9.4-3.8 13.3-2.4 2.9-5.5 4.9-9.1 6-1.1.4-2.4.5-3.5.8zm9.5-15.3c0-.5-.1-1-.1-1.4-.5-3.2-2.8-5.3-5.9-5.5-3.1-.2-5.7 1.3-7.1 4.2-1.1 2.3-1.2 4.7-.4 7.1.8 2.4 2.7 3.8 5.2 4 3 .2 5.4-1.1 7-3.7.8-1.4 1.2-2.9 1.3-4.7z"/></svg>
