<svg xmlns="http://www.w3.org/2000/svg" viewBox="0 0 128 128"><circle cx="64" cy="64" r="64" fill="#ff6c37"/><path fill="#fff" d="M86.9 42.2L72.8 56.3l-1.1-1.1 14.1-14.1c.4-.4.4-1 0-1.4s-1-.4-1.4 0L70.3 53.8l-1.1-1.1L83.3 38.6c.4-.4.4-1 0-1.4s-1-.4-1.4 0L67.8 51.3l-1.1-1.1L80.8 36.1c.4-.4.4-1 0-1.4s-1-.4-1.4 0L63 49 50.7 36.7c8.4-7.3 21.1-7.1 29.3.9 8.1 8.1 8.3 20.8 1 29.2L68.7 54.5l18.2-18.2c-3-3-7.9-3-10.9 0L57.8 54.5 44.1 40.8c.3-.3.6-.5.9-.8L58.3 53.3l1.4-1.4L46.3 38.5c.3-.2.7-.5 1-.7L61.1 51.6l1.4-1.4L48.5 36.2c.4-.2.7-.4 1.1-.6l14.8 14.8 1.4-1.4L50.4 33.6c2.1-.8 4.4-1.3 6.7-1.3 5.2 0 10.1 2 13.8 5.7l-14 14 1.1 1.1L72 39c1.6 1.8 2.9 3.9 3.7 6.2L62.8 58.1l1.1 1.1L77 46.3c.5 1.8.8 3.6.8 5.5 0 4.4-1.4 8.5-4 11.9L61.5 51.4 49 63.9c-.5-.5-.9-.9-1.4-1.4l12-12L47.3 38.2c-.4.3-.8.7-1.2 1.1l12.3 12.3-12 12c-.4-.5-.9-1-1.3-1.5L57.4 50 44.8 37.4c-.3.4-.7.9-1 1.3l12.3 12.3-12.3 12.3c-.4-.5-.7-1.1-1.1-1.6L55 49.4 43 37.4c1.3-1.5 2.7-2.9 4.3-4l14.2 14.2 1.4-1.4L48.5 31.8c.5-.3 1-.6 1.5-.9L64 44.9V97c-18.2 0-33-14.8-33-33s14.8-33 33-33 33 14.8 33 33c0 8.5-3.2 16.3-8.5 22.2z"/></svg>
